HIERARCHY
ROOT root
{
    OFFSET 0.000000 0.000000 0.000000
    CHANNELS 6 Xposition Yposition Zposition Zrotation Xrotation Yrotation
}
MOTION
Frames:    84
Frame Time:    0.010000
-16.689861    170.585175    21.394535    -29.345093    4.413312    -18.964104    
-16.694557    170.587280    21.381306    -29.281387    4.455739    -18.967569    
-16.688463    170.584427    21.385666    -29.227224    4.469961    -18.970888    
-16.687716    170.588226    21.366158    -29.220497    4.524246    -18.945450    
-16.676762    170.584091    21.371246    -29.304482    4.523148    -18.930357    
-16.676762    170.584091    21.371246    -29.304564    4.523176    -18.930311    
-16.677605    170.576080    21.365816    -29.324333    4.538679    -18.909239    
-16.686325    170.581284    21.352198    -29.353159    4.564762    -18.930008    
-16.672592    170.556625    21.347717    -29.395052    4.608014    -18.904787    
-16.669283    170.554337    21.327314    -29.438231    4.599883    -18.891451    
-16.669781    170.537186    21.328516    -29.499241    4.617438    -18.922274    
-16.678188    170.530869    21.301226    -29.473778    4.573546    -18.948130    
-16.668463    170.521896    21.287191    -29.484064    4.559792    -18.938658    
-16.670748    170.517609    21.261463    -29.485058    4.522149    -18.945557    
-16.674515    170.510971    21.245615    -29.454384    4.483777    -18.924164    
-16.695442    170.494125    21.216799    -29.490442    4.466338    -18.917583    
-16.716919    170.452408    21.219368    -29.443367    4.382373    -18.955536    
-16.719276    170.446869    21.220583    -29.422718    4.372147    -18.956787    
-16.710972    170.440079    21.230247    -29.467821    4.365830    -18.931196    
-16.704206    170.431427    21.240993    -29.494528    4.367688    -18.927185    
-16.692076    170.441467    21.229811    -29.572412    4.406322    -18.881044    
-16.675053    170.440643    21.250689    -29.595474    4.493591    -18.896832    
-16.693642    170.436279    21.289537    -29.637165    4.581827    -18.906805    
-16.744795    170.394257    21.313780    -29.735834    4.575148    -18.855217    
-16.736343    170.385483    21.332798    -29.773388    4.601954    -18.884888    
-16.728460    170.388992    21.331654    -29.785986    4.650003    -18.837152    
-16.725332    170.384552    21.334133    -29.798216    4.632061    -18.828800    
-16.713366    170.384247    21.346043    -29.777868    4.628015    -18.830662    
-16.699823    170.388245    21.344339    -29.701923    4.620169    -18.859571    
-16.688948    170.390350    21.356655    -29.762964    4.668554    -18.861927    
-16.688948    170.390350    21.356655    -29.763098    4.668564    -18.861874    
-16.680973    170.398453    21.355625    -29.818449    4.668242    -18.844624    
-16.668251    170.404968    21.370939    -29.857092    4.707217    -18.836151    
-16.664925    170.410843    21.377039    -29.923634    4.732724    -18.847305    
-16.665033    170.413498    21.378922    -29.900278    4.758309    -18.840073    
-16.660284    170.411804    21.397644    -29.914824    4.781307    -18.862597    
-16.665104    170.400558    21.406834    -29.882565    4.735892    -18.839386    
-16.668030    170.397858    21.413082    -29.825577    4.695665    -18.836714    
-16.682425    170.385330    21.415676    -29.835094    4.671030    -18.800636    
-16.685078    170.380600    21.422438    -29.836990    4.631723    -18.782558    
-16.688435    170.376755    21.430454    -29.825388    4.587931    -18.791164    
-16.693180    170.372513    21.431238    -29.814077    4.613376    -18.793283    
-16.697155    170.357758    21.465769    -29.889910    4.629221    -18.761633    
-16.703609    170.348587    21.475693    -29.859325    4.685689    -18.786081    
-16.713469    170.334595    21.499590    -29.837940    4.713737    -18.792814    
-16.702383    170.315384    21.506659    -29.866497    4.688746    -18.802158    
-16.719776    170.294479    21.524286    -29.897232    4.703232    -18.756657    
-16.726868    170.287720    21.548492    -29.874550    4.675932    -18.686674    
-16.718271    170.266098    21.588099    -29.902750    4.683596    -18.716089    
-16.701965    170.245941    21.615904    -29.924734    4.742377    -18.745457    
-16.697445    170.255310    21.613865    -29.945276    4.766186    -18.675249    
-16.672668    170.251114    21.623558    -30.005972    4.803389    -18.615862    
-16.665403    170.253113    21.616594    -30.024734    4.815451    -18.627089    
-16.644032    170.234390    21.664419    -30.144508    4.937204    -18.646797    
-16.634626    170.234406    21.675394    -30.228086    4.993616    -18.648232    
-16.634012    170.214325    21.706509    -30.258120    5.014877    -18.714508    
-16.647669    170.203079    21.729939    -30.299707    4.959713    -18.685291    
-16.642500    170.185944    21.746674    -30.351683    4.943780    -18.683041    
-16.647371    170.175720    21.748920    -30.355158    4.865990    -18.661043    
-16.642635    170.150299    21.790644    -30.349562    4.860624    -18.685089    
-16.642641    170.141190    21.808907    -30.361965    4.885298    -18.706701    
-16.640875    170.139008    21.831104    -30.378681    4.927977    -18.719446    
-16.638533    170.141068    21.854628    -30.392260    4.910794    -18.652042    
-16.630951    170.136047    21.913305    -30.351665    4.985603    -18.729389    
-16.630510    170.129990    21.942978    -30.381895    5.030087    -18.700634    
-16.634047    170.133591    21.957476    -30.418823    5.073856    -18.710173    
-16.620518    170.134323    21.995260    -30.402437    5.065472    -18.664684    
-16.622358    170.126862    22.051283    -30.457205    5.073509    -18.719839    
-16.618259    170.131210    22.071930    -30.482075    5.064678    -18.674013    
-16.612793    170.114059    22.121628    -30.477907    5.099600    -18.696041    
-16.619444    170.126312    22.143360    -30.502649    5.106135    -18.638266    
-16.613569    170.133957    22.175816    -30.540350    5.071843    -18.585924    
-16.603016    170.123108    22.225649    -30.575754    5.139525    -18.557499    
-16.603947    170.124084    22.255751    -30.550591    5.100702    -18.560600    
-16.597927    170.135376    22.282623    -30.571154    5.125744    -18.494385    
-16.597816    170.135956    22.335907    -30.582075    5.153799    -18.543873    
-16.591766    170.125320    22.374744    -30.532156    5.152384    -18.541315    
-16.595375    170.123367    22.394995    -30.520332    5.147141    -18.508904    
-16.588053    170.127960    22.421316    -30.471720    5.162001    -18.511387    
-16.566223    170.126221    22.466801    -30.554483    5.252823    -18.515303    
-16.544571    170.123428    22.485464    -30.562466    5.271430    -18.527002    
-16.525681    170.125641    22.494762    -30.602247    5.210777    -18.475351    
-16.501276    170.130463    22.523861    -30.596790    5.202157    -18.473766    
-16.473616    170.125504    22.558414    -30.678165    5.257966    -18.490875    
